<svg preserveAspectRatio="none" width="100%" height="100%" overflow="visible" style="display: block;" viewBox="0 0 52 52" fill="none" xmlns="http://www.w3.org/2000/svg">
<g id="apple">
<path id="Vector" d="M26 12.4583C26 8.125 29.25 3.79167 33.5833 3.79167C33.5833 8.125 30.3333 12.4583 26 12.4583Z" fill="var(--fill-0, white)" stroke="var(--stroke-0, white)" stroke-width="1.5" stroke-linejoin="round"/>
<path id="Vector_2" d="M27.0833 17.5284C25.9677 17.5284 25.1045 17.174 24.1397 16.778C22.9181 16.2765 21.534 15.7083 19.2689 15.7083C15.2151 15.7083 8.66667 18.9571 8.66667 27.6239C8.66667 37.7035 15.3935 48.2083 19.7269 48.2083C21.1776 48.2083 22.4846 47.6387 23.7337 47.0945C24.8766 46.5961 25.9714 46.119 27.0833 46.119C28.1953 46.119 29.2901 46.5961 30.433 47.0945C31.6821 47.6387 32.989 48.2083 34.4398 48.2083C37.4571 48.2083 41.0742 43.1149 43.3333 36.6184C39.8218 35.1438 37.5657 31.6723 37.5657 27.625C37.5657 24.0955 39.4411 21.7529 42.25 20.0417C40.0833 16.7917 36.8624 15.7083 34.5469 15.7083C32.2818 15.7083 30.8975 16.2765 29.676 16.778C28.7114 17.174 28.199 17.5284 27.0833 17.5284Z" fill="var(--fill-0, white)" stroke="var(--stroke-0, white)" stroke-width="1.5" stroke-linejoin="round"/>
</g>
</svg>
