<svg preserveAspectRatio="none" width="100%" height="100%" overflow="visible" style="display: block;" viewBox="0 0 43.25 43.2502" fill="none" xmlns="http://www.w3.org/2000/svg">
<g id="Play Store Icon">
<path id="Vector" d="M41.4087 23.4129C40.5607 26.8747 36.0487 29.3613 27.0243 34.334C17.2094 39.7423 12.3018 42.4467 8.32673 41.4049C6.98043 41.0522 5.74043 40.4314 4.69923 39.5896C1.625 37.1045 1.625 31.9445 1.625 21.6249C1.625 11.3055 1.625 6.14579 4.69923 3.66037C5.74043 2.81859 6.98043 2.19815 8.32673 1.84528C12.3018 0.803427 17.2094 3.50764 27.0243 8.91611C36.0487 13.8889 40.5607 16.3751 41.4087 19.8373C41.6971 21.0151 41.6971 22.2351 41.4087 23.4129Z" fill="var(--fill-0, white)" stroke="var(--stroke-0, black)" stroke-width="3.25" stroke-linejoin="round"/>
<path id="Vector_2" d="M4.125 40.3751L34.125 12.6788M4.125 2.87507L34.125 30.5715" stroke="var(--stroke-0, black)" stroke-width="3.25" stroke-linejoin="round"/>
</g>
</svg>
